<svg width="680" viewBox="0 0 680 470" xmlns="http://www.w3.org/2000/svg" font-family="Georgia, 'Times New Roman', serif">
<defs>
<marker id="arrow" viewBox="0 0 10 10" refX="8" refY="5" markerWidth="6" markerHeight="6" orient="auto-start-reverse"><path d="M2 1L8 5L2 9" fill="none" stroke="#444" stroke-width="1.5" stroke-linecap="round" stroke-linejoin="round"/></marker>
</defs>
<rect x="0" y="0" width="680" height="470" fill="#f7f4ec"/>
<rect x="40" y="40" width="150" height="50" rx="8" fill="#F1EFE8" stroke="#5F5E5A" stroke-width="0.5"/>
<text x="115" y="62" text-anchor="middle" fill="#2C2C2A" font-size="14" font-weight="bold">RSS feeds</text>
<text x="115" y="79" text-anchor="middle" fill="#5F5E5A" font-size="12">23 international</text>
<rect x="40" y="120" width="150" height="50" rx="8" fill="#FAEEDA" stroke="#854F0B" stroke-width="0.5"/>
<text x="115" y="142" text-anchor="middle" fill="#633806" font-size="14" font-weight="bold">Time trigger</text>
<text x="115" y="159" text-anchor="middle" fill="#854F0B" font-size="12">06:00 / 18:00 UTC</text>
<rect x="250" y="55" width="200" height="200" rx="14" fill="#E6F1FB" stroke="#185FA5" stroke-width="0.5"/>
<text x="350" y="80" text-anchor="middle" fill="#0C447C" font-size="14" font-weight="bold">Function Compute</text>
<text x="350" y="97" text-anchor="middle" fill="#185FA5" font-size="12">web function, Python 3.10</text>
<rect x="270" y="112" width="160" height="40" rx="8" fill="#E1F5EE" stroke="#0F6E56" stroke-width="0.5"/>
<text x="350" y="137" text-anchor="middle" fill="#085041" font-size="14" font-weight="bold">Flask app</text>
<rect x="270" y="164" width="160" height="72" rx="8" fill="#E1F5EE" stroke="#0F6E56" stroke-width="0.5"/>
<text x="350" y="186" text-anchor="middle" fill="#085041" font-size="14" font-weight="bold">Agent engine</text>
<text x="350" y="204" text-anchor="middle" fill="#0F6E56" font-size="12">synthesis, preference,</text>
<text x="350" y="220" text-anchor="middle" fill="#0F6E56" font-size="12">question, world state</text>
<rect x="510" y="55" width="130" height="60" rx="8" fill="#EEEDFE" stroke="#534AB7" stroke-width="0.5"/>
<text x="575" y="79" text-anchor="middle" fill="#3C3489" font-size="14" font-weight="bold">Qwen</text>
<text x="575" y="97" text-anchor="middle" fill="#534AB7" font-size="12">qwen3.6-flash</text>
<rect x="510" y="175" width="130" height="80" rx="8" fill="#EAF3DE" stroke="#3B6D11" stroke-width="0.5"/>
<text x="575" y="202" text-anchor="middle" fill="#27500A" font-size="14" font-weight="bold">OSS storage</text>
<text x="575" y="220" text-anchor="middle" fill="#3B6D11" font-size="12">reaction log,</text>
<text x="575" y="236" text-anchor="middle" fill="#3B6D11" font-size="12">reader model</text>
<rect x="250" y="300" width="200" height="50" rx="8" fill="#FAECE7" stroke="#993C1D" stroke-width="0.5"/>
<text x="350" y="322" text-anchor="middle" fill="#712B13" font-size="14" font-weight="bold">Reader's browser</text>
<text x="350" y="339" text-anchor="middle" fill="#993C1D" font-size="12">reads page, reacts</text>
<line x1="190" y1="65" x2="248" y2="100" stroke="#888780" stroke-width="1" marker-end="url(#arrow)"/>
<line x1="190" y1="145" x2="248" y2="135" stroke="#BA7517" stroke-width="1" marker-end="url(#arrow)"/>
<line x1="432" y1="120" x2="508" y2="92" stroke="#7F77DD" stroke-width="1" marker-end="url(#arrow)"/>
<line x1="508" y1="100" x2="434" y2="128" stroke="#7F77DD" stroke-width="1" marker-end="url(#arrow)"/>
<line x1="450" y1="200" x2="508" y2="208" stroke="#1D9E75" stroke-width="1" marker-end="url(#arrow)"/>
<line x1="508" y1="222" x2="452" y2="214" stroke="#1D9E75" stroke-width="1" marker-end="url(#arrow)"/>
<line x1="350" y1="256" x2="350" y2="298" stroke="#D85A30" stroke-width="1" marker-end="url(#arrow)"/>
<line x1="370" y1="298" x2="370" y2="258" stroke="#D85A30" stroke-width="1" marker-end="url(#arrow)"/>
<text x="470" y="128" fill="#5F5E5A" font-size="12">synthesise</text>
<text x="462" y="248" fill="#5F5E5A" font-size="12">persist memory</text>
</svg>
